<svg id="visual" viewBox="0 0 900 600" width="900" height="600" xmlns="http://www.w3.org/2000/svg" xmlns:xlink="http://www.w3.org/1999/xlink" version="1.1"><rect x="0" y="0" width="900" height="600" fill="#e5f2f8"></rect><path d="M0 520L10.7 512.8C21.3 505.7 42.7 491.3 64.2 478.3C85.7 465.3 107.3 453.7 128.8 452.5C150.3 451.3 171.7 460.7 193 452.5C214.3 444.3 235.7 418.7 257 426C278.3 433.3 299.7 473.7 321.2 491C342.7 508.3 364.3 502.7 385.8 492.7C407.3 482.7 428.7 468.3 450 464.5C471.3 460.7 492.7 467.3 514.2 473.3C535.7 479.3 557.3 484.7 578.8 481.3C600.3 478 621.7 466 643 450.3C664.3 434.7 685.7 415.3 707 414.3C728.3 413.3 749.7 430.7 771.2 448.7C792.7 466.7 814.3 485.3 835.8 487.5C857.3 489.7 878.7 475.3 889.3 468.2L900 461L900 601L889.3 601C878.7 601 857.3 601 835.8 601C814.3 601 792.7 601 771.2 601C749.7 601 728.3 601 707 601C685.7 601 664.3 601 643 601C621.7 601 600.3 601 578.8 601C557.3 601 535.7 601 514.2 601C492.7 601 471.3 601 450 601C428.7 601 407.3 601 385.8 601C364.3 601 342.7 601 321.2 601C299.7 601 278.3 601 257 601C235.7 601 214.3 601 193 601C171.7 601 150.3 601 128.8 601C107.3 601 85.7 601 64.2 601C42.7 601 21.3 601 10.7 601L0 601Z" fill="#4FACF7" stroke-linecap="round" stroke-linejoin="miter"></path></svg>