<svg xmlns="http://www.w3.org/2000/svg" version="1.1" xmlns:xlink="http://www.w3.org/1999/xlink" xmlns:svgjs="http://svgjs.dev/svgjs" width="1440" height="560" preserveAspectRatio="none" viewBox="0 0 1440 560"><g mask="url(&quot;#SvgjsMask2510&quot;)" fill="none"><rect width="1440" height="560" x="0" y="0" fill="url(&quot;#SvgjsLinearGradient2511&quot;)"></rect><path d="M1440 0L1425.26 0L1440 115.69z" fill="rgba(255, 255, 255, .1)"></path><path d="M1425.26 0L1440 115.69L1440 226.48000000000002L1091.4099999999999 0z" fill="rgba(255, 255, 255, .075)"></path><path d="M1091.4099999999999 0L1440 226.48000000000002L1440 367.34000000000003L993.5599999999998 0z" fill="rgba(255, 255, 255, .05)"></path><path d="M993.56 0L1440 367.34000000000003L1440 472L377.68999999999994 0z" fill="rgba(255, 255, 255, .025)"></path><path d="M0 560L331.91 560L0 480.84000000000003z" fill="rgba(0, 0, 0, .1)"></path><path d="M0 480.84000000000003L331.91 560L764.06 560L0 420.84000000000003z" fill="rgba(0, 0, 0, .075)"></path><path d="M0 420.84000000000003L764.06 560L909 560L0 372.37z" fill="rgba(0, 0, 0, .05)"></path><path d="M0 372.37L909 560L1252.07 560L0 292.79z" fill="rgba(0, 0, 0, .025)"></path></g><defs><mask id="SvgjsMask2510"><rect width="1440" height="560" fill="#ffffff"></rect></mask><linearGradient x1="50%" y1="0%" x2="50%" y2="100%" gradientUnits="userSpaceOnUse" id="SvgjsLinearGradient2511"><stop stop-color="rgba(95, 165, 255, 1)" offset="0.01"></stop><stop stop-color="rgba(255, 255, 255, 1)" offset="0.75"></stop><stop stop-color="rgba(255, 255, 255, 1)" offset="1"></stop><stop stop-color="rgba(95, 165, 255, 1)" offset="1"></stop></linearGradient></defs></svg>