<svg xmlns="http://www.w3.org/2000/svg" version="1.1" xmlns:xlink="http://www.w3.org/1999/xlink" xmlns:svgjs="http://svgjs.dev/svgjs" width="1440" height="560" preserveAspectRatio="none" viewBox="0 0 1440 560"><g mask="url(&quot;#SvgjsMask1944&quot;)" fill="none"><rect width="1440" height="560" x="0" y="0" fill="url(&quot;#SvgjsLinearGradient1945&quot;)"></rect><path d="M1440 0L957.65 0L1440 232.03z" fill="rgba(255, 255, 255, .1)"></path><path d="M957.65 0L1440 232.03L1440 280.56L593.42 0z" fill="rgba(255, 255, 255, .075)"></path><path d="M593.42 0L1440 280.56L1440 388.25L235.72999999999996 0z" fill="rgba(255, 255, 255, .05)"></path><path d="M235.73000000000002 0L1440 388.25L1440 480.13L177.95000000000002 0z" fill="rgba(255, 255, 255, .025)"></path><path d="M0 560L327.42 560L0 481.89z" fill="rgba(0, 0, 0, .1)"></path><path d="M0 481.89L327.42 560L731.01 560L0 263z" fill="rgba(0, 0, 0, .075)"></path><path d="M0 263L731.01 560L805.4 560L0 172.68z" fill="rgba(0, 0, 0, .05)"></path><path d="M0 172.68L805.4 560L1077.88 560L0 81.19000000000001z" fill="rgba(0, 0, 0, .025)"></path></g><defs><mask id="SvgjsMask1944"><rect width="1440" height="560" fill="#ffffff"></rect></mask><linearGradient x1="50%" y1="100%" x2="50%" y2="0%" gradientUnits="userSpaceOnUse" id="SvgjsLinearGradient1945"><stop stop-color="#0e2a47" offset="0"></stop><stop stop-color="rgba(70, 90, 188, 1)" offset="1"></stop></linearGradient></defs></svg>