<svg id="visual" viewBox="0 0 900 600" width="900" height="600" xmlns="http://www.w3.org/2000/svg" xmlns:xlink="http://www.w3.org/1999/xlink" version="1.1"><rect x="0" y="0" width="900" height="600" fill="#001220"></rect><path d="M0 411L21.5 410.8C43 410.7 86 410.3 128.8 406.3C171.7 402.3 214.3 394.7 257.2 397.7C300 400.7 343 414.3 385.8 424.3C428.7 434.3 471.3 440.7 514.2 436.8C557 433 600 419 642.8 411.8C685.7 404.7 728.3 404.3 771.2 408.7C814 413 857 422 878.5 426.5L900 431L900 601L878.5 601C857 601 814 601 771.2 601C728.3 601 685.7 601 642.8 601C600 601 557 601 514.2 601C471.3 601 428.7 601 385.8 601C343 601 300 601 257.2 601C214.3 601 171.7 601 128.8 601C86 601 43 601 21.5 601L0 601Z" fill="#698efa"></path><path d="M0 448L21.5 443.2C43 438.3 86 428.7 128.8 431.7C171.7 434.7 214.3 450.3 257.2 451.3C300 452.3 343 438.7 385.8 438.5C428.7 438.3 471.3 451.7 514.2 451.3C557 451 600 437 642.8 431.2C685.7 425.3 728.3 427.7 771.2 434.2C814 440.7 857 451.3 878.5 456.7L900 462L900 601L878.5 601C857 601 814 601 771.2 601C728.3 601 685.7 601 642.8 601C600 601 557 601 514.2 601C471.3 601 428.7 601 385.8 601C343 601 300 601 257.2 601C214.3 601 171.7 601 128.8 601C86 601 43 601 21.5 601L0 601Z" fill="#5a80ed"></path><path d="M0 508L21.5 501.8C43 495.7 86 483.3 128.8 482.8C171.7 482.3 214.3 493.7 257.2 497C300 500.3 343 495.7 385.8 487C428.7 478.3 471.3 465.7 514.2 458.7C557 451.7 600 450.3 642.8 455.3C685.7 460.3 728.3 471.7 771.2 475.8C814 480 857 477 878.5 475.5L900 474L900 601L878.5 601C857 601 814 601 771.2 601C728.3 601 685.7 601 642.8 601C600 601 557 601 514.2 601C471.3 601 428.7 601 385.8 601C343 601 300 601 257.2 601C214.3 601 171.7 601 128.8 601C86 601 43 601 21.5 601L0 601Z" fill="#4a72e0"></path><path d="M0 528L21.5 529.3C43 530.7 86 533.3 128.8 531.2C171.7 529 214.3 522 257.2 518C300 514 343 513 385.8 513.8C428.7 514.7 471.3 517.3 514.2 517.2C557 517 600 514 642.8 514.3C685.7 514.7 728.3 518.3 771.2 520.2C814 522 857 522 878.5 522L900 522L900 601L878.5 601C857 601 814 601 771.2 601C728.3 601 685.7 601 642.8 601C600 601 557 601 514.2 601C471.3 601 428.7 601 385.8 601C343 601 300 601 257.2 601C214.3 601 171.7 601 128.8 601C86 601 43 601 21.5 601L0 601Z" fill="#3964d3"></path><path d="M0 536L21.5 539.2C43 542.3 86 548.7 128.8 547C171.7 545.3 214.3 535.7 257.2 538.2C300 540.7 343 555.3 385.8 562.2C428.7 569 471.3 568 514.2 561.5C557 555 600 543 642.8 543.3C685.7 543.7 728.3 556.3 771.2 560.2C814 564 857 559 878.5 556.5L900 554L900 601L878.5 601C857 601 814 601 771.2 601C728.3 601 685.7 601 642.8 601C600 601 557 601 514.2 601C471.3 601 428.7 601 385.8 601C343 601 300 601 257.2 601C214.3 601 171.7 601 128.8 601C86 601 43 601 21.5 601L0 601Z" fill="#2457c7"></path></svg>